<?xml version="1.0" encoding="UTF-8" standalone="no"?>
<!DOCTYPE svg PUBLIC "-//W3C//DTD SVG 1.1//EN"
 "http://www.w3.org/Graphics/SVG/1.1/DTD/svg11.dtd">
<!-- Generated by graphviz version 2.43.0 (0)
 -->
<!-- Title: G Pages: 1 -->
<svg width="899pt" height="142pt"
 viewBox="0.00 0.00 899.20 142.20" xmlns="http://www.w3.org/2000/svg" xmlns:xlink="http://www.w3.org/1999/xlink">
<g id="graph0" class="graph" transform="scale(1 1) rotate(0) translate(21.6 120.6)">
<title>G</title>
<polygon fill="#ffffff" stroke="transparent" points="-21.6,21.6 -21.6,-120.6 877.6,-120.6 877.6,21.6 -21.6,21.6"/>
<!-- ../frontend/src/utils/tools.js -->
<g id="node1" class="node">
<title>../frontend/src/utils/tools.js</title>
<path fill="none" stroke="#43d994" d="M658,-99C658,-99 519,-99 519,-99 515.5,-99 512,-95.5 512,-92 512,-92 512,-85 512,-85 512,-81.5 515.5,-78 519,-78 519,-78 658,-78 658,-78 661.5,-78 665,-81.5 665,-85 665,-85 665,-92 665,-92 665,-95.5 661.5,-99 658,-99"/>
<text text-anchor="middle" x="588.5" y="-85.4" font-family="Arial" font-size="12.00" fill="#43d994">../frontend/src/utils/tools.js</text>
</g>
<!-- index.js -->
<g id="node2" class="node">
<title>index.js</title>
<path fill="none" stroke="#254bd7" d="M51,-40C51,-40 7,-40 7,-40 3.5,-40 0,-36.5 0,-33 0,-33 0,-26 0,-26 0,-22.5 3.5,-19 7,-19 7,-19 51,-19 51,-19 54.5,-19 58,-22.5 58,-26 58,-26 58,-33 58,-33 58,-36.5 54.5,-40 51,-40"/>
<text text-anchor="middle" x="29" y="-26.4" font-family="Arial" font-size="12.00" fill="#254bd7">index.js</text>
</g>
<!-- src/controller/query.controller.js -->
<g id="node3" class="node">
<title>src/controller/query.controller.js</title>
<path fill="none" stroke="#254bd7" d="M268,-60C268,-60 101,-60 101,-60 97.5,-60 94,-56.5 94,-53 94,-53 94,-46 94,-46 94,-42.5 97.5,-39 101,-39 101,-39 268,-39 268,-39 271.5,-39 275,-42.5 275,-46 275,-46 275,-53 275,-53 275,-56.5 271.5,-60 268,-60"/>
<text text-anchor="middle" x="184.5" y="-46.4" font-family="Arial" font-size="12.00" fill="#254bd7">src/controller/query.controller.js</text>
</g>
<!-- index.js&#45;&gt;src/controller/query.controller.js -->
<g id="edge1" class="edge">
<title>index.js&#45;&gt;src/controller/query.controller.js</title>
<path fill="none" stroke="#757575" d="M58.15,-33.17C68.19,-34.48 80.12,-36.03 92.56,-37.65"/>
<polygon fill="#757575" stroke="#757575" points="92.25,-41.14 102.62,-38.96 93.15,-34.2 92.25,-41.14"/>
</g>
<!-- src/middleware/logger.js -->
<g id="node4" class="node">
<title>src/middleware/logger.js</title>
<path fill="none" stroke="#43d994" d="M250.5,-21C250.5,-21 118.5,-21 118.5,-21 115,-21 111.5,-17.5 111.5,-14 111.5,-14 111.5,-7 111.5,-7 111.5,-3.5 115,0 118.5,0 118.5,0 250.5,0 250.5,0 254,0 257.5,-3.5 257.5,-7 257.5,-7 257.5,-14 257.5,-14 257.5,-17.5 254,-21 250.5,-21"/>
<text text-anchor="middle" x="184.5" y="-7.4" font-family="Arial" font-size="12.00" fill="#43d994">src/middleware/logger.js</text>
</g>
<!-- index.js&#45;&gt;src/middleware/logger.js -->
<g id="edge2" class="edge">
<title>index.js&#45;&gt;src/middleware/logger.js</title>
<path fill="none" stroke="#757575" d="M58.15,-26.02C70.51,-24.49 85.72,-22.6 101.23,-20.68"/>
<polygon fill="#757575" stroke="#757575" points="101.94,-24.12 111.43,-19.42 101.08,-17.18 101.94,-24.12"/>
</g>
<!-- src/services/query.service.js -->
<g id="node5" class="node">
<title>src/services/query.service.js</title>
<path fill="none" stroke="#254bd7" d="M469,-60C469,-60 318,-60 318,-60 314.5,-60 311,-56.5 311,-53 311,-53 311,-46 311,-46 311,-42.5 314.5,-39 318,-39 318,-39 469,-39 469,-39 472.5,-39 476,-42.5 476,-46 476,-46 476,-53 476,-53 476,-56.5 472.5,-60 469,-60"/>
<text text-anchor="middle" x="393.5" y="-46.4" font-family="Arial" font-size="12.00" fill="#254bd7">src/services/query.service.js</text>
</g>
<!-- src/controller/query.controller.js&#45;&gt;src/services/query.service.js -->
<g id="edge3" class="edge">
<title>src/controller/query.controller.js&#45;&gt;src/services/query.service.js</title>
<path fill="none" stroke="#757575" d="M275.09,-49.5C283.65,-49.5 292.34,-49.5 300.92,-49.5"/>
<polygon fill="#757575" stroke="#757575" points="300.92,-53 310.92,-49.5 300.92,-46 300.92,-53"/>
</g>
<!-- src/services/query.service.js&#45;&gt;../frontend/src/utils/tools.js -->
<g id="edge5" class="edge">
<title>src/services/query.service.js&#45;&gt;../frontend/src/utils/tools.js</title>
<path fill="none" stroke="#757575" d="M446.47,-60C470.82,-64.92 500.01,-70.82 525.5,-75.97"/>
<polygon fill="#757575" stroke="#757575" points="524.94,-79.43 535.43,-77.98 526.32,-72.57 524.94,-79.43"/>
</g>
<!-- src/database/mariadb.js -->
<g id="node7" class="node">
<title>src/database/mariadb.js</title>
<path fill="none" stroke="#254bd7" d="M653,-60C653,-60 524,-60 524,-60 520.5,-60 517,-56.5 517,-53 517,-53 517,-46 517,-46 517,-42.5 520.5,-39 524,-39 524,-39 653,-39 653,-39 656.5,-39 660,-42.5 660,-46 660,-46 660,-53 660,-53 660,-56.5 656.5,-60 653,-60"/>
<text text-anchor="middle" x="588.5" y="-46.4" font-family="Arial" font-size="12.00" fill="#254bd7">src/database/mariadb.js</text>
</g>
<!-- src/services/query.service.js&#45;&gt;src/database/mariadb.js -->
<g id="edge6" class="edge">
<title>src/services/query.service.js&#45;&gt;src/database/mariadb.js</title>
<path fill="none" stroke="#757575" d="M476.07,-49.5C486.25,-49.5 496.67,-49.5 506.84,-49.5"/>
<polygon fill="#757575" stroke="#757575" points="506.91,-53 516.91,-49.5 506.91,-46 506.91,-53"/>
</g>
<!-- src/models/Query.js -->
<g id="node8" class="node">
<title>src/models/Query.js</title>
<path fill="none" stroke="#43d994" d="M642,-21C642,-21 535,-21 535,-21 531.5,-21 528,-17.5 528,-14 528,-14 528,-7 528,-7 528,-3.5 531.5,0 535,0 535,0 642,0 642,0 645.5,0 649,-3.5 649,-7 649,-7 649,-14 649,-14 649,-17.5 645.5,-21 642,-21"/>
<text text-anchor="middle" x="588.5" y="-7.4" font-family="Arial" font-size="12.00" fill="#43d994">src/models/Query.js</text>
</g>
<!-- src/services/query.service.js&#45;&gt;src/models/Query.js -->
<g id="edge7" class="edge">
<title>src/services/query.service.js&#45;&gt;src/models/Query.js</title>
<path fill="none" stroke="#757575" d="M446.47,-39C470.82,-34.08 500.01,-28.18 525.5,-23.03"/>
<polygon fill="#757575" stroke="#757575" points="526.32,-26.43 535.43,-21.02 524.94,-19.57 526.32,-26.43"/>
</g>
<!-- src/database/maria.conf.js -->
<g id="node6" class="node">
<title>src/database/maria.conf.js</title>
<path fill="none" stroke="#43d994" d="M849,-60C849,-60 708,-60 708,-60 704.5,-60 701,-56.5 701,-53 701,-53 701,-46 701,-46 701,-42.5 704.5,-39 708,-39 708,-39 849,-39 849,-39 852.5,-39 856,-42.5 856,-46 856,-46 856,-53 856,-53 856,-56.5 852.5,-60 849,-60"/>
<text text-anchor="middle" x="778.5" y="-46.4" font-family="Arial" font-size="12.00" fill="#43d994">src/database/maria.conf.js</text>
</g>
<!-- src/database/mariadb.js&#45;&gt;src/database/maria.conf.js -->
<g id="edge4" class="edge">
<title>src/database/mariadb.js&#45;&gt;src/database/maria.conf.js</title>
<path fill="none" stroke="#757575" d="M660.04,-49.5C670.04,-49.5 680.42,-49.5 690.69,-49.5"/>
<polygon fill="#757575" stroke="#757575" points="690.9,-53 700.9,-49.5 690.9,-46 690.9,-53"/>
</g>
</g>
</svg>
