<?xml version="1.0" encoding="UTF-8" standalone="no"?>
<!DOCTYPE svg PUBLIC "-//W3C//DTD SVG 1.1//EN"
 "http://www.w3.org/Graphics/SVG/1.1/DTD/svg11.dtd">
<!-- Generated by graphviz version 2.43.0 (0)
 -->
<!-- Title: G Pages: 1 -->
<svg width="889pt" height="142pt"
 viewBox="0.00 0.00 889.20 142.20" xmlns="http://www.w3.org/2000/svg" xmlns:xlink="http://www.w3.org/1999/xlink">
<g id="graph0" class="graph" transform="scale(1 1) rotate(0) translate(21.6 120.6)">
<title>G</title>
<polygon fill="#ffffff" stroke="transparent" points="-21.6,21.6 -21.6,-120.6 867.6,-120.6 867.6,21.6 -21.6,21.6"/>
<!-- index.js -->
<g id="node1" class="node">
<title>index.js</title>
<path fill="none" stroke="#254bd7" d="M51,-40C51,-40 7,-40 7,-40 3.5,-40 0,-36.5 0,-33 0,-33 0,-26 0,-26 0,-22.5 3.5,-19 7,-19 7,-19 51,-19 51,-19 54.5,-19 58,-22.5 58,-26 58,-26 58,-33 58,-33 58,-36.5 54.5,-40 51,-40"/>
<text text-anchor="middle" x="29" y="-26.4" font-family="Arial" font-size="12.00" fill="#254bd7">index.js</text>
</g>
<!-- src/controller/query.controller.js -->
<g id="node2" class="node">
<title>src/controller/query.controller.js</title>
<path fill="none" stroke="#254bd7" d="M268,-60C268,-60 101,-60 101,-60 97.5,-60 94,-56.5 94,-53 94,-53 94,-46 94,-46 94,-42.5 97.5,-39 101,-39 101,-39 268,-39 268,-39 271.5,-39 275,-42.5 275,-46 275,-46 275,-53 275,-53 275,-56.5 271.5,-60 268,-60"/>
<text text-anchor="middle" x="184.5" y="-46.4" font-family="Arial" font-size="12.00" fill="#254bd7">src/controller/query.controller.js</text>
</g>
<!-- index.js&#45;&gt;src/controller/query.controller.js -->
<g id="edge1" class="edge">
<title>index.js&#45;&gt;src/controller/query.controller.js</title>
<path fill="none" stroke="#757575" d="M58.15,-33.17C68.19,-34.48 80.12,-36.03 92.56,-37.65"/>
<polygon fill="#757575" stroke="#757575" points="92.25,-41.14 102.62,-38.96 93.15,-34.2 92.25,-41.14"/>
</g>
<!-- src/middleware/logger.js -->
<g id="node3" class="node">
<title>src/middleware/logger.js</title>
<path fill="none" stroke="#43d994" d="M250.5,-21C250.5,-21 118.5,-21 118.5,-21 115,-21 111.5,-17.5 111.5,-14 111.5,-14 111.5,-7 111.5,-7 111.5,-3.5 115,0 118.5,0 118.5,0 250.5,0 250.5,0 254,0 257.5,-3.5 257.5,-7 257.5,-7 257.5,-14 257.5,-14 257.5,-17.5 254,-21 250.5,-21"/>
<text text-anchor="middle" x="184.5" y="-7.4" font-family="Arial" font-size="12.00" fill="#43d994">src/middleware/logger.js</text>
</g>
<!-- index.js&#45;&gt;src/middleware/logger.js -->
<g id="edge2" class="edge">
<title>index.js&#45;&gt;src/middleware/logger.js</title>
<path fill="none" stroke="#757575" d="M58.15,-26.02C70.51,-24.49 85.72,-22.6 101.23,-20.68"/>
<polygon fill="#757575" stroke="#757575" points="101.94,-24.12 111.43,-19.42 101.08,-17.18 101.94,-24.12"/>
</g>
<!-- src/services/query.service.js -->
<g id="node4" class="node">
<title>src/services/query.service.js</title>
<path fill="none" stroke="#254bd7" d="M469,-60C469,-60 318,-60 318,-60 314.5,-60 311,-56.5 311,-53 311,-53 311,-46 311,-46 311,-42.5 314.5,-39 318,-39 318,-39 469,-39 469,-39 472.5,-39 476,-42.5 476,-46 476,-46 476,-53 476,-53 476,-56.5 472.5,-60 469,-60"/>
<text text-anchor="middle" x="393.5" y="-46.4" font-family="Arial" font-size="12.00" fill="#254bd7">src/services/query.service.js</text>
</g>
<!-- src/controller/query.controller.js&#45;&gt;src/services/query.service.js -->
<g id="edge3" class="edge">
<title>src/controller/query.controller.js&#45;&gt;src/services/query.service.js</title>
<path fill="none" stroke="#757575" d="M275.09,-49.5C283.65,-49.5 292.34,-49.5 300.92,-49.5"/>
<polygon fill="#757575" stroke="#757575" points="300.92,-53 310.92,-49.5 300.92,-46 300.92,-53"/>
</g>
<!-- src/database/mariadb.js -->
<g id="node6" class="node">
<title>src/database/mariadb.js</title>
<path fill="none" stroke="#254bd7" d="M648,-99C648,-99 519,-99 519,-99 515.5,-99 512,-95.5 512,-92 512,-92 512,-85 512,-85 512,-81.5 515.5,-78 519,-78 519,-78 648,-78 648,-78 651.5,-78 655,-81.5 655,-85 655,-85 655,-92 655,-92 655,-95.5 651.5,-99 648,-99"/>
<text text-anchor="middle" x="583.5" y="-85.4" font-family="Arial" font-size="12.00" fill="#254bd7">src/database/mariadb.js</text>
</g>
<!-- src/services/query.service.js&#45;&gt;src/database/mariadb.js -->
<g id="edge5" class="edge">
<title>src/services/query.service.js&#45;&gt;src/database/mariadb.js</title>
<path fill="none" stroke="#757575" d="M445.38,-60.05C468.89,-64.93 496.99,-70.76 521.62,-75.87"/>
<polygon fill="#757575" stroke="#757575" points="521.08,-79.33 531.58,-77.94 522.5,-72.48 521.08,-79.33"/>
</g>
<!-- src/models/Query.js -->
<g id="node7" class="node">
<title>src/models/Query.js</title>
<path fill="none" stroke="#43d994" d="M637,-60C637,-60 530,-60 530,-60 526.5,-60 523,-56.5 523,-53 523,-53 523,-46 523,-46 523,-42.5 526.5,-39 530,-39 530,-39 637,-39 637,-39 640.5,-39 644,-42.5 644,-46 644,-46 644,-53 644,-53 644,-56.5 640.5,-60 637,-60"/>
<text text-anchor="middle" x="583.5" y="-46.4" font-family="Arial" font-size="12.00" fill="#43d994">src/models/Query.js</text>
</g>
<!-- src/services/query.service.js&#45;&gt;src/models/Query.js -->
<g id="edge6" class="edge">
<title>src/services/query.service.js&#45;&gt;src/models/Query.js</title>
<path fill="none" stroke="#757575" d="M476.14,-49.5C488.25,-49.5 500.64,-49.5 512.48,-49.5"/>
<polygon fill="#757575" stroke="#757575" points="512.73,-53 522.73,-49.5 512.73,-46 512.73,-53"/>
</g>
<!-- src/utils/tools.js -->
<g id="node8" class="node">
<title>src/utils/tools.js</title>
<path fill="none" stroke="#43d994" d="M625.5,-21C625.5,-21 541.5,-21 541.5,-21 538,-21 534.5,-17.5 534.5,-14 534.5,-14 534.5,-7 534.5,-7 534.5,-3.5 538,0 541.5,0 541.5,0 625.5,0 625.5,0 629,0 632.5,-3.5 632.5,-7 632.5,-7 632.5,-14 632.5,-14 632.5,-17.5 629,-21 625.5,-21"/>
<text text-anchor="middle" x="583.5" y="-7.4" font-family="Arial" font-size="12.00" fill="#43d994">src/utils/tools.js</text>
</g>
<!-- src/services/query.service.js&#45;&gt;src/utils/tools.js -->
<g id="edge7" class="edge">
<title>src/services/query.service.js&#45;&gt;src/utils/tools.js</title>
<path fill="none" stroke="#757575" d="M445.38,-38.95C469.86,-33.87 499.32,-27.76 524.65,-22.5"/>
<polygon fill="#757575" stroke="#757575" points="525.42,-25.92 534.5,-20.46 523.99,-19.06 525.42,-25.92"/>
</g>
<!-- src/database/maria.conf.js -->
<g id="node5" class="node">
<title>src/database/maria.conf.js</title>
<path fill="none" stroke="#43d994" d="M839,-99C839,-99 698,-99 698,-99 694.5,-99 691,-95.5 691,-92 691,-92 691,-85 691,-85 691,-81.5 694.5,-78 698,-78 698,-78 839,-78 839,-78 842.5,-78 846,-81.5 846,-85 846,-85 846,-92 846,-92 846,-95.5 842.5,-99 839,-99"/>
<text text-anchor="middle" x="768.5" y="-85.4" font-family="Arial" font-size="12.00" fill="#43d994">src/database/maria.conf.js</text>
</g>
<!-- src/database/mariadb.js&#45;&gt;src/database/maria.conf.js -->
<g id="edge4" class="edge">
<title>src/database/mariadb.js&#45;&gt;src/database/maria.conf.js</title>
<path fill="none" stroke="#757575" d="M655.25,-88.5C663.64,-88.5 672.27,-88.5 680.84,-88.5"/>
<polygon fill="#757575" stroke="#757575" points="680.86,-92 690.86,-88.5 680.86,-85 680.86,-92"/>
</g>
</g>
</svg>
